# ProBuilder 4.0.5
# https://unity3d.com/unity/features/worldbuilding/probuilder
# 3/3/2020 3:25:44 PM

mtllib ./Bookcase.mtl
o Bookcase

g Cube (12)-Merged
v -9.247937 1.489111 -4.86634
v -9.247937 1.446888 -4.86634
v -11.68406 1.446888 -4.86634
v -11.68406 1.489111 -4.86634
v -9.247937 1.446888 -5.589912
v -11.68406 1.446888 -5.589912
v -9.247937 1.489111 -5.589912
v -11.68406 1.489111 -5.589912
v -9.281676 1.467194 -4.868214
v -9.239453 1.467194 -4.868214
v -9.239453 -0.1711935 -4.868214
v -9.281676 -0.1711935 -4.868214
v -9.239453 1.467194 -5.591786
v -9.239453 -0.1711935 -5.591786
v -9.281676 1.467194 -5.591786
v -9.281676 -0.1711935 -5.591786
v -9.247937 1.473196 -5.597345
v -9.247937 1.473196 -5.557789
v -11.68406 1.473196 -5.55779
v -11.68406 1.473196 -5.597346
v -9.247937 -0.1771964 -5.557789
v -11.68406 -0.1771964 -5.55779
v -9.247937 -0.1771964 -5.597345
v -11.68406 -0.1771964 -5.597346
v -9.236499 -0.1528885 -4.868214
v -9.236499 -0.1951115 -4.868214
v -11.6755 -0.1951115 -4.868214
v -11.6755 -0.1528885 -4.868214
v -9.236499 -0.1951115 -5.591786
v -11.6755 -0.1951115 -5.591786
v -9.236499 -0.1528885 -5.591786
v -11.6755 -0.1528885 -5.591786
v -11.68568 1.467194 -4.868214
v -11.64345 1.467194 -4.868214
v -11.64345 -0.1711935 -4.868214
v -11.68568 -0.1711935 -4.868214
v -11.64345 1.467194 -5.591786
v -11.64345 -0.1711935 -5.591786
v -11.68568 1.467194 -5.591786
v -11.68568 -0.1711935 -5.591786
v -9.236499 0.5781115 -4.868214
v -9.236499 0.5358884 -4.868214
v -11.6755 0.5358884 -4.868214
v -11.6755 0.5781115 -4.868214
v -9.236499 0.5358884 -5.591786
v -11.6755 0.5358884 -5.591786
v -9.236499 0.5781115 -5.591786
v -11.6755 0.5781115 -5.591786

vt 0 0
vt 0 1
vt 1 1
vt 1 0

vn 0 0 1
vn 0 -1 0
vn 0 0 -1
vn 0 1 0
vn -1 0 0
vn 1 0 0

g Cube (12)-Merged
usemtl Wood_Texture_13
f 4/4/1 3/3/1 2/2/1 1/1/1
f 3/4/2 6/3/2 5/2/2 2/1/2
f 6/4/3 8/3/3 7/2/3 5/1/3
f 8/4/4 4/3/4 1/2/4 7/1/4
f 8/4/5 6/3/5 3/2/5 4/1/5
f 1/4/6 2/3/6 5/2/6 7/1/6
f 12/4/1 11/3/1 10/2/1 9/1/1
f 11/4/6 14/3/6 13/2/6 10/1/6
f 14/4/3 16/3/3 15/2/3 13/1/3
f 16/4/5 12/3/5 9/2/5 15/1/5
f 16/4/2 14/3/2 11/2/2 12/1/2
f 9/4/4 10/3/4 13/2/4 15/1/4
f 20/4/4 19/3/4 18/2/4 17/1/4
f 19/4/1 22/3/1 21/2/1 18/1/1
f 22/4/2 24/3/2 23/2/2 21/1/2
f 24/4/3 20/3/3 17/2/3 23/1/3
f 24/4/5 22/3/5 19/2/5 20/1/5
f 17/4/6 18/3/6 21/2/6 23/1/6
f 28/4/1 27/3/1 26/2/1 25/1/1
f 27/4/2 30/3/2 29/2/2 26/1/2
f 30/4/3 32/3/3 31/2/3 29/1/3
f 32/4/4 28/3/4 25/2/4 31/1/4
f 32/4/5 30/3/5 27/2/5 28/1/5
f 25/4/6 26/3/6 29/2/6 31/1/6
f 36/4/1 35/3/1 34/2/1 33/1/1
f 35/4/6 38/3/6 37/2/6 34/1/6
f 38/4/3 40/3/3 39/2/3 37/1/3
f 40/4/5 36/3/5 33/2/5 39/1/5
f 40/4/2 38/3/2 35/2/2 36/1/2
f 33/4/4 34/3/4 37/2/4 39/1/4
f 44/4/1 43/3/1 42/2/1 41/1/1
f 43/4/2 46/3/2 45/2/2 42/1/2
f 46/4/3 48/3/3 47/2/3 45/1/3
f 48/4/4 44/3/4 41/2/4 47/1/4
f 48/4/5 46/3/5 43/2/5 44/1/5
f 41/4/6 42/3/6 45/2/6 47/1/6

