# ProBuilder 4.0.5
# https://unity3d.com/unity/features/worldbuilding/probuilder
# 3/3/2020 3:23:11 PM

mtllib ./Monitor.mtl
o Monitor

g Monitor
v -10.97989 -0.199899 0.1744701
v -10.97989 -0.1988985 0.03956391
v -10.97989 -0.1774263 0.1744701
v -10.97989 -0.1467554 0.03956391
v -10.84498 -0.1988985 0.03956394
v -10.84498 -0.1467554 0.03956394
v -10.84498 -0.199899 0.1744701
v -10.84498 -0.1774263 0.1744701
v -11.187 -0.1983189 -0.08098302
v -11.14005 -0.1712115 -0.08098302
v -11.14005 -0.1990429 -0.08098302
v -11.18173 -0.1983189 -0.1345491
v -11.13568 -0.1712115 -0.1253893
v -11.13568 -0.1990429 -0.1253893
v -11.1661 -0.1983189 -0.1860566
v -11.12273 -0.1712115 -0.168089
v -11.12273 -0.1990429 -0.168089
v -11.14073 -0.1983189 -0.2335262
v -11.10169 -0.1712115 -0.2074413
v -11.10169 -0.1990429 -0.2074413
v -11.10658 -0.1983189 -0.2751337
v -11.07338 -0.1712115 -0.2419339
v -11.07338 -0.1990429 -0.2419339
v -11.06498 -0.1983189 -0.30928
v -11.03889 -0.1712115 -0.2702413
v -11.03889 -0.1990429 -0.2702412
v -11.01751 -0.1983189 -0.3346531
v -10.99954 -0.1712115 -0.2912755
v -10.99954 -0.1990429 -0.2912754
v -10.966 -0.1983189 -0.3502777
v -10.95684 -0.1712115 -0.3042283
v -10.95684 -0.1990429 -0.3042283
v -10.91243 -0.1983189 -0.3555534
v -10.91243 -0.1712115 -0.3086019
v -10.91243 -0.1990429 -0.3086019
v -10.85887 -0.1983189 -0.3502777
v -10.86803 -0.1712115 -0.3042283
v -10.86803 -0.1990429 -0.3042283
v -10.80736 -0.1983189 -0.3346531
v -10.82533 -0.1712115 -0.2912755
v -10.82533 -0.1990429 -0.2912754
v -10.75989 -0.1983189 -0.30928
v -10.78598 -0.1712115 -0.2702413
v -10.78598 -0.1990429 -0.2702413
v -10.71828 -0.1983189 -0.2751337
v -10.75148 -0.1712115 -0.2419339
v -10.75148 -0.1990429 -0.2419339
v -10.68414 -0.1983189 -0.2335262
v -10.72318 -0.1712115 -0.2074413
v -10.72318 -0.1990429 -0.2074413
v -10.65876 -0.1983189 -0.1860566
v -10.70214 -0.1712115 -0.168089
v -10.70214 -0.1990429 -0.168089
v -10.64314 -0.1983189 -0.1345491
v -10.68919 -0.1712115 -0.1253893
v -10.68919 -0.1990429 -0.1253893
v -10.63786 -0.1983189 -0.080983
v -10.68481 -0.1712115 -0.080983
v -10.68481 -0.1990429 -0.080983
v -10.64314 -0.1983189 -0.027417
v -10.68919 -0.1712115 -0.03657679
v -10.68919 -0.1990429 -0.03657679
v -10.65876 -0.1983189 0.02409054
v -10.70214 -0.1712115 0.006122977
v -10.70214 -0.1990429 0.006122977
v -10.68414 -0.1983189 0.07156019
v -10.72318 -0.1712115 0.04547529
v -10.72318 -0.1990429 0.04547529
v -10.71828 -0.1983189 0.1131676
v -10.75148 -0.1712115 0.07996784
v -10.75148 -0.1990429 0.07996784
v -10.75989 -0.1983189 0.1473139
v -10.78598 -0.1712115 0.1082752
v -10.78598 -0.1990429 0.1082752
v -10.80736 -0.1983189 0.172687
v -10.82533 -0.1712115 0.1293094
v -10.82533 -0.1990429 0.1293095
v -10.85887 -0.1983189 0.1883117
v -10.86803 -0.1712115 0.1422623
v -10.86803 -0.1990429 0.1422623
v -10.91243 -0.1983189 0.1935874
v -10.91243 -0.1712115 0.1466359
v -10.91243 -0.1990429 0.1466359
v -10.966 -0.1983189 0.1883117
v -10.95684 -0.1712115 0.1422623
v -10.95684 -0.1990429 0.1422623
v -11.01751 -0.1983189 0.172687
v -10.99954 -0.1712115 0.1293094
v -10.99954 -0.1990429 0.1293095
v -11.06498 -0.1983189 0.147314
v -11.03889 -0.1712115 0.1082752
v -11.03889 -0.1990429 0.1082752
v -11.10658 -0.1983189 0.1131676
v -11.07338 -0.1712115 0.07996787
v -11.07338 -0.1990429 0.07996787
v -11.14073 -0.1983189 0.07156019
v -11.10169 -0.1712115 0.04547529
v -11.10169 -0.1990429 0.04547529
v -11.1661 -0.1983189 0.02409054
v -11.12273 -0.1712115 0.006122977
v -11.12273 -0.1990429 0.006122977
v -11.18173 -0.1983189 -0.027417
v -11.13568 -0.1712115 -0.03657679
v -11.13568 -0.1990429 -0.03657679
v -10.97989 -0.1692018 0.063659
v -10.97989 0.03116003 -0.135104
v -10.97989 -0.1520542 0.07818423
v -10.97989 0.07094732 -0.137625
v -10.84498 0.03116006 -0.135104
v -10.84498 0.07094735 -0.137625
v -10.84498 -0.1692018 0.06365903
v -10.84498 -0.1520542 0.07818426
v -11.521 -0.0616743 -0.1266874
v -11.521 0.6274199 -0.1266874
v -10.30387 0.6274199 -0.1266874
v -10.30387 -0.0616743 -0.1266874
v -11.521 0.6274199 -0.1472786
v -10.30387 0.6274199 -0.1472786
v -11.521 -0.0616743 -0.1472786
v -10.30387 -0.0616743 -0.1472786

vt 0.5000001 -0.3170311
vt -0.5027968 -0.3006386
vt 0.5012056 -0.05082738
vt -0.4999999 0.3170309
vt 0.4999979 -0.305094
vt -0.5000022 -0.305094
vt 0.4999979 0.3170311
vt -0.5000022 0.3170311
vt 0.5027966 -0.3006389
vt -0.5000001 -0.3170311
vt -0.5012054 -0.05082732
vt -0.4999979 -0.3170309
vt 0.5000021 -0.04890686
vt -0.4999979 -0.04890686
vt -0.4863556 0.4999978
vt 0.5784965 0.4999978
vt -0.4863558 -0.5000021
vt 0.578496 -0.5000021
vt 0.5037485 -0.5000021
vt -0.4963225 -0.5000021
vt 0.5037483 0.4999978
vt -0.4963228 0.4999979
vt 0 0
vt -0.1709999 0
vt 0 0.09872689
vt 0 -0.09872689
vt 0.1709999 0
vt -0.01921475 -0.1950903
vt -0.1869289 -0.1617299
vt 0.1617299 0.09872689
vt 0.1617299 -0.09872689
vt 0.1869289 -0.1617299
vt 0.01921475 -0.1950903
vt -0.0761205 -0.3826834
vt -0.2341038 -0.3172446
vt 0.3172446 0.09872689
vt 0.3172446 -0.09872689
vt 0.2341038 -0.3172446
vt 0.0761205 -0.3826834
vt -0.1685303 -0.5555702
vt -0.3107116 -0.4605678
vt 0.4605678 0.09872689
vt 0.4605678 -0.09872689
vt 0.3107116 -0.4605678
vt 0.1685303 -0.5555702
vt -0.2928933 -0.7071068
vt -0.4138085 -0.5861916
vt 0.5861916 0.09872689
vt 0.5861916 -0.09872689
vt 0.4138085 -0.5861916
vt 0.2928933 -0.7071068
vt 0.4138085 0.09872689
vt 0.4138085 -0.09872689
vt -0.4444298 -0.8314696
vt -0.5394322 -0.6892883
vt 0.5394322 0.09872689
vt 0.5394322 -0.09872689
vt 0.5394322 -0.6892883
vt 0.4444298 -0.8314696
vt -0.6173166 -0.9238795
vt -0.6827555 -0.7658961
vt 0.6827555 0.09872689
vt 0.6827555 -0.09872689
vt 0.6827555 -0.7658961
vt 0.6173166 -0.9238795
vt -0.8049096 -0.9807853
vt -0.8382701 -0.8130711
vt 0.8382701 0.09872689
vt 0.8382701 -0.09872689
vt 0.8382701 -0.8130711
vt 0.8049096 -0.9807853
vt -0.9999999 -0.9999999
vt -0.9999999 -0.829
vt 0.9999999 0.09872689
vt 0.9999999 -0.09872689
vt 0.9999999 -0.829
vt 0.9999999 -0.9999999
vt -1.19509 -0.9807853
vt -1.16173 -0.813071
vt 1.16173 0.09872689
vt 1.16173 -0.09872689
vt 1.16173 -0.813071
vt 1.19509 -0.9807853
vt -1.382683 -0.9238795
vt -1.317245 -0.7658961
vt 1.317245 0.09872689
vt 1.317245 -0.09872689
vt 1.317245 -0.7658961
vt 1.382683 -0.9238795
vt -1.55557 -0.8314697
vt -1.460568 -0.6892884
vt 1.460568 0.09872689
vt 1.460568 -0.09872689
vt 1.460568 -0.6892884
vt 1.55557 -0.8314697
vt -1.707107 -0.7071068
vt -1.586191 -0.5861915
vt 1.586191 0.09872689
vt 1.586191 -0.09872689
vt 1.586191 -0.5861915
vt 1.707107 -0.7071068
vt -0.5861915 0.09872689
vt -0.5861915 -0.09872689
vt -1.83147 -0.5555702
vt -1.689288 -0.4605677
vt -0.4605677 0.09872689
vt -0.4605677 -0.09872689
vt 1.689288 -0.4605677
vt 1.83147 -0.5555702
vt -1.923879 -0.3826835
vt -1.765896 -0.3172446
vt -0.3172446 0.09872689
vt -0.3172446 -0.09872689
vt 1.765896 -0.3172446
vt 1.923879 -0.3826835
vt -1.980785 -0.1950903
vt -1.813071 -0.1617299
vt -0.1617299 0.09872689
vt -0.1617299 -0.09872689
vt 1.813071 -0.1617299
vt 1.980785 -0.1950903
vt -2 8.742278E-08
vt -1.829 7.247348E-08
vt 1.829 7.247348E-08
vt 2 8.742278E-08
vt -1.980785 0.1950902
vt -1.813071 0.1617298
vt 1.813071 0.1617298
vt 1.980785 0.1950902
vt -1.923879 0.3826834
vt -1.765896 0.3172446
vt 1.765896 0.3172446
vt 1.923879 0.3826834
vt -1.831469 0.5555703
vt -1.689288 0.4605678
vt 1.689288 0.4605678
vt 1.831469 0.5555703
vt -1.707107 0.7071067
vt -1.586192 0.5861915
vt 1.586192 0.5861915
vt 1.707107 0.7071067
vt -1.586192 0.09872689
vt -1.586192 -0.09872689
vt -1.55557 0.8314694
vt -1.460568 0.6892882
vt -1.460568 0.09872689
vt -1.460568 -0.09872689
vt 1.460568 0.6892882
vt 1.55557 0.8314694
vt -1.382684 0.9238795
vt -1.317245 0.7658961
vt -1.317245 0.09872689
vt -1.317245 -0.09872689
vt 1.317245 0.7658961
vt 1.382684 0.9238795
vt -1.19509 0.9807853
vt -1.16173 0.8130711
vt -1.16173 0.09872689
vt -1.16173 -0.09872689
vt 1.16173 0.8130711
vt 1.19509 0.9807853
vt -0.9999999 0.9999999
vt -0.9999999 0.829
vt -0.9999999 0.09872689
vt -0.9999999 -0.09872689
vt 0.9999999 0.829
vt 0.9999999 0.9999999
vt -0.8049096 0.9807853
vt -0.8382701 0.8130711
vt -0.8382701 0.09872689
vt -0.8382701 -0.09872689
vt 0.8382701 0.8130711
vt 0.8049096 0.9807853
vt -0.6173165 0.9238795
vt -0.6827554 0.7658961
vt -0.6827554 0.09872689
vt -0.6827554 -0.09872689
vt 0.6827554 0.7658961
vt 0.6173165 0.9238795
vt -0.44443 0.8314698
vt -0.5394324 0.6892885
vt -0.5394324 0.09872689
vt -0.5394324 -0.09872689
vt 0.5394324 0.6892885
vt 0.44443 0.8314698
vt -0.2928933 0.7071068
vt -0.4138085 0.5861916
vt -0.4138085 0.09872689
vt -0.4138085 -0.09872689
vt 0.4138085 0.5861916
vt 0.2928933 0.7071068
vt -0.1685305 0.5555703
vt -0.3107117 0.4605678
vt 0.3107117 0.4605678
vt 0.1685305 0.5555703
vt -0.07612044 0.3826834
vt -0.2341038 0.3172446
vt 0.2341038 0.3172446
vt 0.07612044 0.3826834
vt -0.01921469 0.1950902
vt -0.1869289 0.1617298
vt 0.1869289 0.1617298
vt 0.01921469 0.1950902
vt 0.5422698 -0.295038
vt -0.50328 0.1240672
vt 0.5561051 -0.2054112
vt -0.5898523 0.2702774
vt 0.4999908 0.07879716
vt -0.5000038 0.0787974
vt 0.4999979 0.4330693
vt -0.5000038 0.4330696
vt 0.5032837 0.1240645
vt -0.5422657 -0.2950408
vt 0.589856 0.2702748
vt -0.5561011 -0.2054141
vt 0.5728267 -0.5000018
vt -0.3831283 -0.5000037
vt 0.5728244 0.4999982
vt -0.3831306 0.4999892
vt 0 1
vt 1 1
vt 1 0

vn -1 0 0
vn 2.209105E-07 0 -1
vn 1 0 0
vn -2.209105E-07 0 1
vn -4.897426E-08 0.9751166 0.2216928
vn 1.638276E-09 -0.9999725 -0.007416017
vn -0.9673393 -0.2534847 -1.410903E-07
vn 0.4972849 0.8675873 -7.473073E-08
vn 0.6998862 -0.7142543 1.014554E-08
vn -0.9487534 -0.2534845 -0.1887129
vn 0.4877298 0.8675871 0.09701632
vn 0.6864381 -0.7142544 0.1365402
vn -0.8937053 -0.2534831 -0.3701853
vn 0.4594332 0.8675864 0.1903023
vn 0.6466107 -0.7142543 0.2678347
vn -0.8043128 -0.2534835 -0.5374263
vn 0.4134757 0.8675869 0.2762803
vn 0.581932 -0.7142546 0.3888386
vn -0.6840097 -0.2534825 -0.6840156
vn 0.3516343 0.867586 0.3516361
vn 0.4948923 -0.714254 0.4948968
vn -0.5374262 -0.2534831 -0.804313
vn 0.2762762 0.867587 0.4134782
vn 0.3888361 -0.7142537 0.5819348
vn -0.3701847 -0.2534828 -0.8937056
vn 0.1903049 0.8675869 0.4594313
vn 0.2678366 -0.7142537 0.6466105
vn -0.1887187 -0.2534837 -0.9487524
vn 0.09701645 0.8675873 0.4877295
vn 0.1365426 -0.7142546 0.6864377
vn 7.18579E-07 -0.2534836 -0.9673397
vn -5.455333E-07 0.8675868 0.4972858
vn -7.360919E-07 -0.7142544 0.6998863
vn 0.1887183 -0.2534835 -0.9487526
vn -0.09701546 0.8675867 0.4877307
vn -0.136541 -0.7142542 0.6864383
vn 0.3701845 -0.2534833 -0.8937055
vn -0.1903025 0.8675871 0.4594319
vn -0.2678346 -0.7142538 0.6466113
vn 0.5374253 -0.2534834 -0.8043134
vn -0.2762769 0.867587 0.4134779
vn -0.3888356 -0.7142544 0.5819342
vn 0.6840133 -0.2534835 -0.6840116
vn -0.3516339 0.8675867 0.3516344
vn -0.4948943 -0.7142544 0.4948943
vn 0.8043136 -0.253484 -0.5374249
vn -0.4134775 0.867587 0.2762775
vn -0.5819336 -0.7142546 0.3888364
vn 0.8937056 -0.2534842 -0.3701838
vn -0.4594315 0.8675872 0.1903028
vn -0.6466106 -0.7142544 0.2678347
vn 0.9487517 -0.2534844 -0.1887214
vn -0.4877303 0.8675871 0.09701364
vn -0.6864382 -0.7142544 0.1365402
vn 0.9673398 -0.2534832 2.061901E-06
vn -0.4972863 0.8675865 1.259209E-06
vn -0.6998863 -0.7142543 -7.101875E-08
vn 0.9487523 -0.2534841 0.1887192
vn -0.4877297 0.8675874 -0.09701508
vn -0.6864383 -0.7142544 -0.1365402
vn 0.8937056 -0.2534843 0.3701837
vn -0.4594316 0.8675872 -0.1903027
vn -0.6466106 -0.7142544 -0.2678346
vn 0.8043137 -0.253484 0.5374247
vn -0.4134773 0.867587 -0.2762777
vn -0.5819336 -0.7142544 -0.3888365
vn 0.6840124 -0.2534835 0.6840126
vn -0.3516341 0.8675867 -0.3516344
vn -0.494894 -0.7142543 -0.4948946
vn 0.5374257 -0.2534835 0.8043132
vn -0.2762771 0.8675867 -0.4134781
vn -0.388836 -0.7142544 -0.5819339
vn 0.3701851 -0.2534833 0.8937054
vn -0.1903033 0.8675865 -0.4594326
vn -0.2678348 -0.7142546 -0.6466103
vn 0.1887185 -0.2534835 0.9487526
vn -0.09701579 0.8675867 -0.4877308
vn -0.136541 -0.7142544 -0.6864381
vn 1.739027E-07 -0.2534838 0.9673397
vn -7.024678E-07 0.8675869 -0.4972856
vn -7.348029E-07 -0.7142544 -0.6998863
vn -0.1887171 -0.2534843 0.9487526
vn 0.09701781 0.8675871 -0.4877297
vn 0.1365425 -0.7142546 -0.6864375
vn -0.3701871 -0.253483 0.8937047
vn 0.1903036 0.8675861 -0.4594332
vn 0.2678361 -0.7142545 -0.64661
vn -0.5374238 -0.2534831 0.8043146
vn 0.2762781 0.8675866 -0.4134777
vn 0.388836 -0.7142544 -0.581934
vn -0.6840124 -0.2534823 0.6840131
vn 0.3516327 0.8675861 -0.3516375
vn 0.4948925 -0.7142541 -0.4948965
vn -0.8043107 -0.2534834 0.5374296
vn 0.4134769 0.867587 -0.2762783
vn 0.581932 -0.7142546 -0.3888388
vn -0.8937068 -0.253483 0.3701819
vn 0.4594323 0.8675865 -0.1903043
vn 0.6466107 -0.7142544 -0.2678346
vn -0.9487531 -0.2534841 0.188715
vn 0.4877297 0.8675874 -0.09701476
vn 0.6864382 -0.7142544 -0.1365402
vn 2.344394E-07 -0.06323534 -0.9979987
vn -1.685638E-07 -0.64635 0.7630411
vn -1.587463E-07 0.6954237 0.7186
vn 1.568318E-07 -0.7042686 -0.7099336
vn 0 1 0
vn 0 -1 0

g Monitor
usemtl Monitor
f 3/3/1 4/4/1 2/2/1 1/1/1
f 4/7/2 6/8/2 5/6/2 2/5/2
f 6/7/3 8/11/3 7/10/3 5/9/3
f 8/13/4 3/14/4 1/12/4 7/1/4
f 8/17/5 6/18/5 4/16/5 3/15/5
f 1/21/6 2/22/6 5/20/6 7/19/6
f 10/24/8 13/29/11 12/28/10 9/23/7
f 11/26/9 14/31/12 13/30/11 10/25/8
f 9/23/7 12/33/10 14/32/12 11/27/9
f 13/29/11 16/35/14 15/34/13 12/28/10
f 14/31/12 17/37/15 16/36/14 13/30/11
f 12/33/10 15/39/13 17/38/15 14/32/12
f 16/35/14 19/41/17 18/40/16 15/34/13
f 17/37/15 20/43/18 19/42/17 16/36/14
f 15/39/13 18/45/16 20/44/18 17/38/15
f 19/41/17 22/47/20 21/46/19 18/40/16
f 20/43/18 23/49/21 22/48/20 19/42/17
f 18/45/16 21/51/19 23/50/21 20/44/18
f 22/47/20 25/55/23 24/54/22 21/46/19
f 23/53/21 26/57/24 25/56/23 22/52/20
f 21/51/19 24/59/22 26/58/24 23/50/21
f 25/55/23 28/61/26 27/60/25 24/54/22
f 26/57/24 29/63/27 28/62/26 25/56/23
f 24/59/22 27/65/25 29/64/27 26/58/24
f 28/61/26 31/67/29 30/66/28 27/60/25
f 29/63/27 32/69/30 31/68/29 28/62/26
f 27/65/25 30/71/28 32/70/30 29/64/27
f 31/67/29 34/73/32 33/72/31 30/66/28
f 32/69/30 35/75/33 34/74/32 31/68/29
f 30/71/28 33/77/31 35/76/33 32/70/30
f 34/73/32 37/79/35 36/78/34 33/72/31
f 35/75/33 38/81/36 37/80/35 34/74/32
f 33/77/31 36/83/34 38/82/36 35/76/33
f 37/79/35 40/85/38 39/84/37 36/78/34
f 38/81/36 41/87/39 40/86/38 37/80/35
f 36/83/34 39/89/37 41/88/39 38/82/36
f 40/85/38 43/91/41 42/90/40 39/84/37
f 41/87/39 44/93/42 43/92/41 40/86/38
f 39/89/37 42/95/40 44/94/42 41/88/39
f 43/91/41 46/97/44 45/96/43 42/90/40
f 44/93/42 47/99/45 46/98/44 43/92/41
f 42/95/40 45/101/43 47/100/45 44/94/42
f 46/97/44 49/105/47 48/104/46 45/96/43
f 47/103/45 50/107/48 49/106/47 46/102/44
f 45/101/43 48/109/46 50/108/48 47/100/45
f 49/105/47 52/111/50 51/110/49 48/104/46
f 50/107/48 53/113/51 52/112/50 49/106/47
f 48/109/46 51/115/49 53/114/51 50/108/48
f 52/111/50 55/117/53 54/116/52 51/110/49
f 53/113/51 56/119/54 55/118/53 52/112/50
f 51/115/49 54/121/52 56/120/54 53/114/51
f 55/117/53 58/123/56 57/122/55 54/116/52
f 56/119/54 59/26/57 58/25/56 55/118/53
f 54/121/52 57/125/55 59/124/57 56/120/54
f 58/123/56 61/127/59 60/126/58 57/122/55
f 59/26/57 62/31/60 61/30/59 58/25/56
f 57/125/55 60/129/58 62/128/60 59/124/57
f 61/127/59 64/131/62 63/130/61 60/126/58
f 62/31/60 65/37/63 64/36/62 61/30/59
f 60/129/58 63/133/61 65/132/63 62/128/60
f 64/131/62 67/135/65 66/134/64 63/130/61
f 65/37/63 68/43/66 67/42/65 64/36/62
f 63/133/61 66/137/64 68/136/66 65/132/63
f 67/135/65 70/139/68 69/138/67 66/134/64
f 68/43/66 71/49/69 70/48/68 67/42/65
f 66/137/64 69/141/67 71/140/69 68/136/66
f 70/139/68 73/145/71 72/144/70 69/138/67
f 71/143/69 74/147/72 73/146/71 70/142/68
f 69/141/67 72/149/70 74/148/72 71/140/69
f 73/145/71 76/151/74 75/150/73 72/144/70
f 74/147/72 77/153/75 76/152/74 73/146/71
f 72/149/70 75/155/73 77/154/75 74/148/72
f 76/151/74 79/157/77 78/156/76 75/150/73
f 77/153/75 80/159/78 79/158/77 76/152/74
f 75/155/73 78/161/76 80/160/78 77/154/75
f 79/157/77 82/163/80 81/162/79 78/156/76
f 80/159/78 83/165/81 82/164/80 79/158/77
f 78/161/76 81/167/79 83/166/81 80/160/78
f 82/163/80 85/169/83 84/168/82 81/162/79
f 83/165/81 86/171/84 85/170/83 82/164/80
f 81/167/79 84/173/82 86/172/84 83/166/81
f 85/169/83 88/175/86 87/174/85 84/168/82
f 86/171/84 89/177/87 88/176/86 85/170/83
f 84/173/82 87/179/85 89/178/87 86/172/84
f 88/175/86 91/181/89 90/180/88 87/174/85
f 89/177/87 92/183/90 91/182/89 88/176/86
f 87/179/85 90/185/88 92/184/90 89/178/87
f 91/181/89 94/187/92 93/186/91 90/180/88
f 92/183/90 95/189/93 94/188/92 91/182/89
f 90/185/88 93/191/91 95/190/93 92/184/90
f 94/187/92 97/193/95 96/192/94 93/186/91
f 95/103/93 98/107/96 97/106/95 94/102/92
f 93/191/91 96/195/94 98/194/96 95/190/93
f 97/193/95 100/197/98 99/196/97 96/192/94
f 98/107/96 101/113/99 100/112/98 97/106/95
f 96/195/94 99/199/97 101/198/99 98/194/96
f 100/197/98 103/201/101 102/200/100 99/196/97
f 101/113/99 104/119/102 103/118/101 100/112/98
f 99/199/97 102/203/100 104/202/102 101/198/99
f 103/201/101 10/24/8 9/23/7 102/200/100
f 104/119/102 11/26/9 10/25/8 103/118/101
f 102/203/100 9/23/7 11/27/9 104/202/102
f 107/206/1 108/207/1 106/205/1 105/204/1
f 108/210/103 110/211/103 109/209/103 106/208/103
f 110/214/3 112/215/3 111/213/3 109/212/3
f 112/13/104 107/14/104 105/12/104 111/1/104
f 112/17/105 110/18/105 108/16/105 107/15/105
f 105/218/106 106/219/106 109/217/106 111/216/106
f 116/222/4 115/221/4 114/220/4 113/23/4
f 115/222/107 118/221/107 117/220/107 114/23/107
f 118/222/2 120/221/2 119/220/2 117/23/2
f 120/222/108 116/221/108 113/220/108 119/23/108
f 120/222/3 118/221/3 115/220/3 116/23/3
f 113/222/1 114/221/1 117/220/1 119/23/1

